<svg width="165" height="45" viewBox="0 0 165 45" fill="none" xmlns="http://www.w3.org/2000/svg">
<path d="M52.0908 31.7771V12.755H61.3515V31.1108C61.3515 33.2739 61.5736 34.7706 63.6801 34.7706C65.4542 34.7706 66.6199 33.2739 66.6199 31.2212V12.755H75.7702V31.1108C75.7702 33.107 75.8805 34.7706 77.9884 34.7706C80.9833 34.7706 81.7034 30.1672 81.7034 25.6203C81.7034 21.5163 80.8164 16.5252 79.8728 12.755H88.968C90.0219 16.4149 90.7986 21.3507 90.7986 25.4548C90.7986 35.7142 86.6393 41.8144 78.3209 41.8144C74.2168 41.8144 72.1103 40.2059 70.7239 37.9876C68.4505 40.7053 65.6224 41.8144 62.1282 41.8144C55.6955 41.8144 52.0908 38.5422 52.0908 31.7771Z" fill="#5335FC"/>
<path d="M95.2904 31.7771V12.755H104.551V30.5562C104.551 33.107 104.884 34.8258 107.269 34.8258C109.155 34.8258 110.596 32.9952 110.596 31.0543V12.755H119.857V35.7142L120.467 41.0929H112.647L112.203 38.3753H111.981C110.262 40.7039 107.655 41.8131 104.717 41.8131C98.3943 41.8131 95.2891 38.4857 95.2891 31.7757L95.2904 31.7771Z" fill="#5335FC"/>
<path d="M124.35 28.1723C124.35 18.4123 129.451 11.8679 139.378 11.8679C141.319 11.8679 145.645 12.3673 150.082 14.0862V35.1044L150.691 41.0942H142.872L142.428 38.4883L142.151 38.4331C140.654 40.5962 138.379 41.9826 135.219 41.9826C126.678 41.9826 124.35 35.3278 124.35 28.1737V28.1723ZM140.931 32.1647V18.7999C140.266 18.5227 139.378 18.3558 138.381 18.3558C134.721 18.3558 133.5 22.7371 133.5 27.5061C133.5 31.7757 134.277 35.3251 137.492 35.3251C139.655 35.3251 140.93 33.7718 140.93 32.1647H140.931Z" fill="#5335FC"/>
<path d="M155.183 4.60342C155.183 2.10788 157.068 0 160.063 0C163.058 0 164.999 2.10788 164.999 4.60342C164.999 7.09895 163.003 9.20683 160.063 9.20683C157.124 9.20683 155.183 7.26586 155.183 4.60342ZM164.777 12.755V41.0929H155.46V12.755H164.777Z" fill="#5335FC"/>
<path d="M4.96146 35.8124C12.4494 28.3285 16.2371 20.1285 16.9223 9.46792C17.0219 7.92403 17.1215 6.29264 17.1861 4.67876C7.46507 6.09747 0 14.4671 0 24.5811C0 29.1078 1.49544 33.2845 4.01789 36.6456C4.44593 36.2835 4.78513 35.9874 4.96146 35.811V35.8124Z" fill="#5335FC"/>
<path d="M23.8344 17.7622C26.2061 23.9257 29.5846 28.3568 34.8543 32.3733C35.2783 32.6964 36.5005 33.4515 37.7671 34.2416C39.3393 31.3746 40.2344 28.0835 40.2344 24.5825C40.2344 14.2693 32.4732 5.76908 22.4722 4.60342C22.4614 8.43557 22.6175 14.6004 23.8344 17.7622Z" fill="#5335FC"/>
<path d="M27.1168 32.2239C24.2928 26.7024 22.2078 16.6194 21.1512 16.6503C19.9707 25.5637 14.6284 32.9049 7.43922 37.9997C7.18482 38.18 6.66795 38.5206 6.02051 38.9311C9.65075 42.4967 14.6257 44.6975 20.1175 44.6975C25.2122 44.6975 29.8641 42.8023 33.4095 39.6795C31.1239 37.9149 28.4709 34.8688 27.1182 32.2225L27.1168 32.2239Z" fill="#5335FC"/>
</svg>
