<svg width="198" height="51" viewBox="0 0 198 51" fill="none" xmlns="http://www.w3.org/2000/svg">
<path d="M62.3027 36.3807V15.0791H73.3788V35.6346C73.3788 38.0569 73.6444 39.733 76.1639 39.733C78.2857 39.733 79.6799 38.0569 79.6799 35.7582V15.0791H90.6239V35.6346C90.6239 37.8699 90.7559 39.733 93.277 39.733C96.859 39.733 97.7203 34.5779 97.7203 29.4862C97.7203 24.8903 96.6594 19.3011 95.5309 15.0791H106.409C107.669 19.1775 108.598 24.7049 108.598 29.3008C108.598 40.7896 103.624 47.6209 93.6747 47.6209C88.7661 47.6209 86.2466 45.8196 84.5885 43.3355C81.8693 46.3788 78.487 47.6209 74.3077 47.6209C66.614 47.6209 62.3027 43.9565 62.3027 36.3807Z" fill="white"/>
<path d="M113.97 36.3807V15.0791H125.046V35.0135C125.046 37.8699 125.444 39.7948 128.297 39.7948C130.552 39.7948 132.276 37.7448 132.276 35.5713V15.0791H143.352V40.7896L144.082 46.8129H134.73L134.199 43.7696H133.933C131.877 46.3773 128.759 47.6194 125.244 47.6194C117.683 47.6194 113.969 43.8932 113.969 36.3792L113.97 36.3807Z" fill="white"/>
<path d="M148.727 32.3437C148.727 21.4141 154.828 14.0854 166.701 14.0854C169.022 14.0854 174.197 14.6447 179.503 16.5695V40.1065L180.232 46.8141H170.88L170.349 43.8959L170.017 43.8341C168.227 46.2564 165.506 47.809 161.726 47.809C151.512 47.809 148.727 40.3567 148.727 32.3453V32.3437ZM168.559 36.8145V21.8482C167.764 21.5377 166.701 21.3508 165.508 21.3508C161.131 21.3508 159.671 26.2571 159.671 31.5976C159.671 36.3789 160.6 40.3537 164.446 40.3537C167.033 40.3537 168.557 38.6142 168.557 36.8145H168.559Z" fill="white"/>
<path d="M185.604 5.95048C185.604 3.15589 187.86 0.79541 191.442 0.79541C195.024 0.79541 197.345 3.15589 197.345 5.95048C197.345 8.74507 194.958 11.1056 191.442 11.1056C187.926 11.1056 185.604 8.93198 185.604 5.95048ZM197.08 15.0789V46.8127H185.936V15.0789H197.08Z" fill="white"/>
<path d="M5.93406 40.8997C14.8899 32.519 19.4201 23.3363 20.2395 11.3982C20.3587 9.66933 20.4778 7.84245 20.5551 6.03516C8.92845 7.62388 0 16.9965 0 28.3226C0 33.3917 1.78859 38.069 4.80552 41.8328C5.31747 41.4273 5.72316 41.0957 5.93406 40.8982V40.8997Z" fill="white"/>
<path d="M28.5068 20.6864C31.3434 27.5884 35.3842 32.5506 41.6869 37.0484C42.194 37.4102 43.6558 38.2558 45.1707 39.1406C47.0511 35.93 48.1217 32.2446 48.1217 28.324C48.1217 16.7748 38.839 7.25603 26.8775 5.95068C26.8647 10.2421 27.0514 17.1456 28.5068 20.6864Z" fill="white"/>
<path d="M32.433 36.8813C29.0554 30.6982 26.5617 19.4068 25.298 19.4415C23.8861 29.423 17.4964 37.644 8.898 43.3493C8.59373 43.5512 7.97553 43.9326 7.20117 44.3923C11.543 48.3853 17.4932 50.8497 24.0616 50.8497C30.155 50.8497 35.7188 48.7274 39.9592 45.2304C37.2256 43.2543 34.0525 39.8432 32.4346 36.8798L32.433 36.8813Z" fill="white"/>
</svg>
