<svg width="288" height="288" viewBox="0 0 288 288" fill="none" xmlns="http://www.w3.org/2000/svg">
<g clip-path="url(#clip0_26_119)">
<path d="M137.874 40.5736C139.055 27.1377 142.848 14.726 150.026 3C155.285 4.97025 160.372 6.86238 165.848 8.91075C159.382 18.736 152.3 27.6585 150.668 39.9747C153.775 39.9747 156.709 40.0008 159.651 39.9747C177.097 39.8098 192.286 45.9549 203.943 58.5923C226.857 83.4504 249.996 108.204 268.544 136.673C279.42 153.364 287.118 171.348 288.021 191.571C289.08 215.422 280.973 235.811 263.831 252.467C244.302 271.44 220.034 280.684 193.857 285.345C162.602 290.899 132.068 287.992 103.243 274.226C75.9893 261.207 55.1497 241.713 46.0189 211.942C38.9972 189.037 41.7399 166.444 49.7771 144.32C57.7796 122.317 69.4189 102.172 82.3947 82.8081C87.533 75.1354 93.1053 67.7231 98.9639 60.5799C108.902 48.4633 122.173 42.3008 137.883 40.5736H137.874ZM94.3204 135.311C93.9125 151.203 95.9695 166.782 100.943 181.885C111.037 212.541 130.089 235.446 159.903 248.682C175.977 255.817 192.416 257.475 209.194 250.878C210.131 250.505 211.468 250.574 212.44 250.93C219.167 253.387 225.85 252.649 232.472 250.696C255.004 244.056 270.037 224.215 272.025 199.001C273.726 177.493 266.331 158.65 255.325 140.865C244.537 123.446 230.754 108.369 217.222 93.1368C209.255 84.1708 201.33 75.1354 192.824 66.699C184.466 58.4013 174.285 53.1242 162.125 53.8967C157.716 54.1744 153.463 57.0213 149.053 57.2643C144.601 57.5073 139.983 55.0684 135.557 55.3982C121.86 56.4137 113.511 65.4317 107.392 76.6023C97.3843 94.8466 95.1623 114.957 94.3378 135.319L94.3204 135.311Z" fill="#5335FC"/>
<path d="M123.024 36.1808C116.341 38.8888 109.935 41.1455 103.834 44.0358C94.9631 48.254 88.7313 55.4754 83.1764 63.365C82.3952 64.476 80.911 65.7606 79.6959 65.8127C52.4509 67.0799 27.7056 59.98 5.88531 43.3674C5.56417 43.1244 5.35586 42.7165 5 42.2651C12.0651 32.9954 21.0484 25.9477 31.0819 20.4969C51.1316 9.60413 72.4225 4.33567 95.3711 8.57995C108.295 10.9668 119.361 16.73 127.98 26.8243C128.588 27.536 129.065 28.3519 129.898 29.5497" fill="#5335FC"/>
<path d="M198.275 217.401C192.946 226.67 182.965 227.243 170.353 224.197C157.62 221.124 147.578 213.408 139.68 203.348C119.83 178.074 113.676 149.648 122.095 118.489C124.708 108.811 130.167 100.592 138.213 94.3771C151.059 84.4651 164.989 84.656 179.198 90.697C192.521 96.3647 202.875 106.094 212.579 116.51C226.388 131.334 238.479 147.287 243.843 167.302C247.21 179.879 247.67 192.438 242.315 204.676C237.003 216.802 226.293 224.318 214.601 222.912C209.081 222.244 203.839 219.353 198.284 217.409L198.275 217.401ZM139.237 119.999C136.043 120.086 134.194 122.629 134.88 125.979C135.809 130.501 142.605 136.351 147.17 135.856C148.672 135.692 150.963 133.513 151.137 132.046C151.77 126.691 144.671 119.843 139.237 119.99V119.999ZM144.219 177.275C149.948 177.301 154.557 174.715 154.583 171.451C154.609 167.823 150.043 165.037 144.176 165.098C139.367 165.15 136.156 167.606 136.199 171.217C136.243 174.854 139.419 177.249 144.228 177.275H144.219ZM219.809 210.856C223.038 210.804 225.208 208.348 224.782 205.241C224.175 200.823 217.908 194.634 213.499 194.764C211.989 194.808 209.637 196.466 209.211 197.854C207.693 202.836 214.558 210.934 219.809 210.856ZM196.105 137.809C201.573 137.618 206.547 132.897 206.929 128.175C207.206 124.686 204.759 122.099 201.244 122.186C196.661 122.29 191.21 128.123 191.653 132.636C191.948 135.631 193.311 137.835 196.105 137.809ZM152.621 197.906C157.126 197.906 163.002 192.664 163.01 188.437C163.019 184.731 160.511 183.498 157.291 183.386C151.909 183.195 146.78 187.595 146.806 192.256C146.823 195.537 149.262 197.906 152.621 197.915V197.906ZM140.878 156.08C143.299 154.552 146.884 153.398 146.997 151.966C147.188 149.596 145.773 146.194 143.872 144.796C141.546 143.078 138.048 142.47 135.028 142.375C133.344 142.323 130.723 143.946 130.132 145.456C129.507 147.036 130.132 150.195 131.391 151.202C133.943 153.25 137.284 154.318 140.886 156.08H140.878ZM159.851 111.892C158.245 108.585 157.247 105.53 155.433 103.065C153.723 100.73 150.573 99.4546 148.229 101.633C146.667 103.091 145.565 106.216 145.929 108.299C146.398 110.938 148.22 113.611 150.13 115.625C151.397 116.961 154.392 118.272 155.633 117.647C157.438 116.736 158.367 114.08 159.851 111.892ZM220.321 177.761C218.568 178.699 215.678 179.341 215.296 180.686C214.792 182.439 215.652 185.555 217.058 186.666C219.618 188.689 222.899 190.286 226.093 190.841C227.864 191.154 231.579 189.192 231.743 187.916C232.03 185.686 230.893 182.413 229.183 180.999C227.048 179.237 223.724 178.907 220.33 177.761H220.321ZM177.974 114.383C178.217 118.246 178.529 121.726 182.47 122.421C186.367 123.106 187.973 119.999 189.249 116.987C189.752 115.807 190.125 114.514 190.247 113.246C190.603 109.367 188.285 105.348 185.369 105.079C181.376 104.706 179.953 107.77 178.738 110.747C178.208 112.049 178.139 113.541 177.974 114.383ZM176.507 204.919C176.446 200.493 174.25 196.96 171.482 196.847C167.94 196.7 163.956 201.977 164.052 206.699C164.13 210.474 166.786 213.356 170.119 213.295C173.834 213.226 176.568 209.632 176.507 204.928V204.919ZM223.203 170.514C224.965 170.34 226.18 170.566 226.926 170.08C228.714 168.908 231.214 167.641 231.657 165.94C232.03 164.525 230.311 161.782 228.766 160.801C225.147 158.51 220.946 158.718 217.24 160.741C213.143 162.98 213.412 166.938 217.683 168.943C219.592 169.837 221.797 170.123 223.194 170.505L223.203 170.514ZM211.876 152.92C217.188 152.964 222.083 149.657 222.057 146.046C222.031 143.121 218.967 140.674 215.296 140.656C210.409 140.639 205.766 144.05 205.705 147.713C205.653 150.855 208.057 152.886 211.876 152.92Z" fill="#5335FC"/>
</g>
<defs>
<clipPath id="clip0_26_119">
<rect width="288" height="288" fill="white"/>
</clipPath>
</defs>
</svg>
