<svg width="1564" height="285" viewBox="0 0 1564 285" fill="none" xmlns="http://www.w3.org/2000/svg">
<g clip-path="url(#clip0_26_106)">
<path d="M425.704 282.9C409.898 282.9 395.792 280.7 383.387 276.3C371.182 272.1 360.377 264.5 350.973 253.5L376.184 223.8C383.587 232.2 391.29 237.9 399.293 240.9C407.297 243.9 416.2 245.4 426.004 245.4C433.207 245.4 439.91 243.6 446.112 240C452.315 236.4 457.217 231.3 460.818 224.7C464.62 218.3 466.521 211 466.521 202.8V195.9C462.319 203.1 456.517 208.9 449.114 213.3C441.911 217.7 432.007 219.9 419.401 219.9C405.196 219.9 392.29 216.3 380.686 209.1C369.281 201.9 360.277 192.3 353.675 180.3C347.072 168.1 343.77 154.5 343.77 139.5C343.77 124.5 347.072 110.9 353.675 98.7C360.277 86.5 369.281 76.9 380.686 69.9C392.29 62.7 405.196 59.1 419.401 59.1C432.407 59.1 442.511 61.4 449.714 66C457.117 70.6 462.919 76.7 467.121 84.3V63H507.037V205.2C507.037 221.2 503.536 235 496.533 246.6C489.73 258.2 480.226 267.1 468.021 273.3C455.816 279.7 441.711 282.9 425.704 282.9ZM426.004 183C439.41 183 449.814 178.8 457.217 170.4C464.62 162 468.322 151.7 468.322 139.5C468.322 127.3 464.62 117 457.217 108.6C449.814 100.2 439.41 96 426.004 96C412.799 96 402.495 100.2 395.092 108.6C387.889 117 384.287 127.3 384.287 139.5C384.287 147.3 385.888 154.5 389.089 161.1C392.49 167.7 397.292 173 403.495 177C409.698 181 417.201 183 426.004 183Z" fill="white"/>
<path d="M588.826 222.6C577.621 222.6 567.517 220 558.513 214.8C549.509 209.6 542.407 202.2 537.204 192.6C532.002 182.8 529.401 171.4 529.401 158.4V63H569.918V148.5C569.918 161.9 572.619 171.7 578.021 177.9C583.423 184.1 591.127 187.2 601.131 187.2C609.734 187.2 617.237 184.1 623.64 177.9C630.243 171.7 633.544 161.9 633.544 148.5V63H674.06V219H634.744V195.6C630.943 204.6 625.341 211.4 617.938 216C610.735 220.4 601.031 222.6 588.826 222.6Z" fill="white"/>
<path d="M769.092 222.9C754.886 222.9 741.88 219.3 730.076 212.1C718.471 204.7 709.167 194.9 702.164 182.7C695.361 170.3 691.96 156.6 691.96 141.6C691.96 130.4 693.961 119.9 697.962 110.1C701.964 100.1 707.466 91.4 714.469 84C721.472 76.4 729.575 70.5 738.779 66.3C748.183 61.9 758.287 59.7 769.092 59.7C782.697 59.7 793.302 62.3 800.905 67.5C808.508 72.5 814.41 79.2 818.612 87.6V63H858.828V219H819.512V193.5C815.311 202.3 809.308 209.4 801.505 214.8C793.902 220.2 783.097 222.9 769.092 222.9ZM775.694 186.3C784.698 186.3 792.401 184.3 798.804 180.3C805.407 176.1 810.509 170.6 814.11 163.8C817.712 157 819.512 149.6 819.512 141.6C819.512 133.4 817.712 125.9 814.11 119.1C810.509 112.3 805.407 106.8 798.804 102.6C792.401 98.4 784.698 96.3 775.694 96.3C767.091 96.3 759.488 98.4 752.885 102.6C746.482 106.6 741.48 112 737.879 118.8C734.277 125.6 732.477 133.1 732.477 141.3C732.477 149.1 734.277 156.5 737.879 163.5C741.48 170.3 746.482 175.8 752.885 180C759.488 184.2 767.091 186.3 775.694 186.3Z" fill="white"/>
<path d="M898.808 281.7C894.806 281.7 890.305 281.5 885.303 281.1C880.301 280.7 875.799 279.9 871.797 278.7L877.799 240C883.402 241.4 889.504 242.1 896.107 242.1C903.91 242.1 910.313 239.8 915.315 235.2C920.317 230.8 923.918 225.2 926.119 218.4L928.22 211.8L866.395 63H915.315L945.627 152.1C948.428 160.1 950.629 168.4 952.23 177C953.831 168.4 956.031 160.1 958.833 152.1L989.145 63H1037.16L968.136 228.9C961.534 244.7 952.93 257.4 942.326 267C931.722 276.8 917.216 281.7 898.808 281.7Z" fill="white"/>
<path d="M1105.85 222.9C1091.64 222.9 1078.64 219.3 1066.83 212.1C1055.23 204.7 1045.93 194.9 1038.92 182.7C1032.12 170.3 1028.72 156.6 1028.72 141.6C1028.72 130.4 1030.72 119.9 1034.72 110.1C1038.72 100.1 1044.23 91.4 1051.23 84C1058.23 76.4 1066.33 70.5 1075.54 66.3C1084.94 61.9 1095.05 59.7 1105.85 59.7C1119.46 59.7 1130.06 62.3 1137.66 67.5C1145.27 72.5 1151.17 79.2 1155.37 87.6V63H1195.59V219H1156.27V193.5C1152.07 202.3 1146.07 209.4 1138.26 214.8C1130.66 220.2 1119.86 222.9 1105.85 222.9ZM1112.45 186.3C1121.46 186.3 1129.16 184.3 1135.56 180.3C1142.17 176.1 1147.27 170.6 1150.87 163.8C1154.47 157 1156.27 149.6 1156.27 141.6C1156.27 133.4 1154.47 125.9 1150.87 119.1C1147.27 112.3 1142.17 106.8 1135.56 102.6C1129.16 98.4 1121.46 96.3 1112.45 96.3C1103.85 96.3 1096.25 98.4 1089.64 102.6C1083.24 106.6 1078.24 112 1074.64 118.8C1071.04 125.6 1069.24 133.1 1069.24 141.3C1069.24 149.1 1071.04 156.5 1074.64 163.5C1078.24 170.3 1083.24 175.8 1089.64 180C1096.25 184.2 1103.85 186.3 1112.45 186.3Z" fill="white"/>
<path d="M1309.4 222.9C1295.39 222.9 1284.49 220.2 1276.68 214.8C1269.08 209.4 1263.18 202.3 1258.98 193.5V219H1219.66V0H1260.18V87C1264.38 78.8 1270.28 72.2 1277.88 67.2C1285.49 62.2 1295.99 59.7 1309.4 59.7C1320.2 59.7 1330.21 61.9 1339.41 66.3C1348.81 70.5 1357.02 76.4 1364.02 84C1371.02 91.4 1376.52 100.1 1380.53 110.1C1384.53 119.9 1386.53 130.4 1386.53 141.6C1386.53 156.6 1383.03 170.3 1376.02 182.7C1369.22 194.9 1360.02 204.7 1348.41 212.1C1336.81 219.3 1323.8 222.9 1309.4 222.9ZM1302.79 186.3C1311.4 186.3 1318.9 184.2 1325.3 180C1331.91 175.8 1337.01 170.3 1340.61 163.5C1344.21 156.5 1346.01 149.1 1346.01 141.3C1346.01 133.1 1344.21 125.6 1340.61 118.8C1337.01 112 1331.91 106.6 1325.3 102.6C1318.9 98.4 1311.4 96.3 1302.79 96.3C1293.99 96.3 1286.29 98.4 1279.69 102.6C1273.08 106.8 1267.98 112.3 1264.38 119.1C1260.78 125.9 1258.98 133.4 1258.98 141.6C1258.98 149.6 1260.78 157 1264.38 163.8C1267.98 170.6 1273.08 176.1 1279.69 180.3C1286.29 184.3 1293.99 186.3 1302.79 186.3Z" fill="white"/>
<path d="M1474.26 222.9C1460.06 222.9 1447.05 219.3 1435.25 212.1C1423.64 204.7 1414.34 194.9 1407.34 182.7C1400.53 170.3 1397.13 156.6 1397.13 141.6C1397.13 130.4 1399.13 119.9 1403.13 110.1C1407.14 100.1 1412.64 91.4 1419.64 84C1426.64 76.4 1434.75 70.5 1443.95 66.3C1453.35 61.9 1463.46 59.7 1474.26 59.7C1487.87 59.7 1498.47 62.3 1506.08 67.5C1513.68 72.5 1519.58 79.2 1523.78 87.6V63H1564V219H1524.68V193.5C1520.48 202.3 1514.48 209.4 1506.68 214.8C1499.07 220.2 1488.27 222.9 1474.26 222.9ZM1480.87 186.3C1489.87 186.3 1497.57 184.3 1503.98 180.3C1510.58 176.1 1515.68 170.6 1519.28 163.8C1522.88 157 1524.68 149.6 1524.68 141.6C1524.68 133.4 1522.88 125.9 1519.28 119.1C1515.68 112.3 1510.58 106.8 1503.98 102.6C1497.57 98.4 1489.87 96.3 1480.87 96.3C1472.26 96.3 1464.66 98.4 1458.06 102.6C1451.65 106.6 1446.65 112 1443.05 118.8C1439.45 125.6 1437.65 133.1 1437.65 141.3C1437.65 149.1 1439.45 156.5 1443.05 163.5C1446.65 170.3 1451.65 175.8 1458.06 180C1464.66 184.2 1472.26 186.3 1480.87 186.3Z" fill="white"/>
<path d="M132.352 38.4418C133.528 25.053 137.306 12.6849 144.456 1.00001C149.695 2.96334 154.761 4.84884 160.216 6.89002C153.775 16.6807 146.721 25.572 145.095 37.845C148.191 37.845 151.113 37.8709 154.043 37.845C171.421 37.6807 186.55 43.8042 198.161 56.3972C220.985 81.1681 244.033 105.835 262.508 134.204C273.341 150.836 281.009 168.757 281.909 188.909C282.963 212.677 274.889 232.994 257.814 249.591C238.362 268.498 214.189 277.709 188.115 282.354C156.983 287.889 126.568 284.992 97.8571 271.274C70.7106 258.301 49.9531 238.875 40.8582 209.209C33.864 186.384 36.596 163.87 44.6016 141.824C52.5726 119.899 64.1661 99.8242 77.0909 80.5281C82.209 72.8823 87.7593 65.496 93.595 58.3779C103.494 46.3038 116.713 40.1629 132.361 38.4418H132.352ZM88.9697 132.846C88.5634 148.683 90.6123 164.208 95.5661 179.257C105.621 209.806 124.597 232.63 154.294 245.82C170.305 252.93 186.68 254.582 203.391 248.008C204.325 247.637 205.656 247.706 206.625 248.06C213.325 250.508 219.982 249.773 226.578 247.827C249.022 241.21 263.995 221.439 265.975 196.313C267.67 174.881 260.304 156.104 249.341 138.382C238.595 121.023 224.866 106 211.388 90.8205C203.452 81.886 195.559 72.8823 187.086 64.4754C178.761 56.2069 168.62 50.9483 156.507 51.7181C152.116 51.9949 147.879 54.8318 143.487 55.0739C139.052 55.3161 134.453 52.8857 130.044 53.2144C116.401 54.2263 108.085 63.2127 101.99 74.344C92.0215 92.5244 89.8083 112.564 88.987 132.855L88.9697 132.846Z" fill="white"/>
<path d="M117.56 34.0653C110.903 36.7638 104.523 39.0125 98.4449 41.8927C89.6093 46.0961 83.4019 53.2921 77.8689 61.1541C77.0908 62.2612 75.6125 63.5413 74.4021 63.5932C47.2643 64.8559 22.6163 57.781 0.881826 41.2267C0.561947 40.9845 0.35446 40.578 0 40.1283C7.03734 30.8911 15.9853 23.868 25.9794 18.4364C45.9502 7.58185 67.1573 2.33188 90.0157 6.56127C102.889 8.93976 113.911 14.6827 122.496 24.7416C123.102 25.4508 123.577 26.2638 124.407 27.4574" fill="white"/>
<path d="M192.515 214.649C187.207 223.886 177.264 224.457 164.703 221.421C152.02 218.359 142.017 210.67 134.15 200.646C114.378 175.46 108.248 147.134 116.634 116.084C119.237 106.441 124.675 98.2499 132.689 92.0572C145.484 82.18 159.36 82.3703 173.512 88.39C186.783 94.0379 197.097 103.733 206.762 114.112C220.517 128.885 232.56 144.782 237.903 164.727C241.257 177.259 241.716 189.774 236.381 201.969C231.09 214.052 220.422 221.542 208.777 220.141C203.278 219.475 198.056 216.595 192.523 214.658L192.515 214.649ZM133.709 117.589C130.527 117.676 128.686 120.21 129.369 123.548C130.294 128.055 137.063 133.884 141.611 133.391C143.106 133.227 145.389 131.056 145.562 129.594C146.193 124.258 139.121 117.434 133.709 117.581V117.589ZM138.671 174.664C144.377 174.69 148.968 172.113 148.994 168.861C149.02 165.246 144.472 162.469 138.628 162.53C133.839 162.582 130.64 165.029 130.683 168.627C130.726 172.251 133.89 174.638 138.68 174.664H138.671ZM213.964 208.128C217.18 208.076 219.341 205.628 218.918 202.532C218.313 198.129 212.071 191.963 207.679 192.092C206.174 192.135 203.832 193.787 203.408 195.171C201.895 200.136 208.734 208.205 213.964 208.128ZM190.353 135.337C195.8 135.147 200.754 130.442 201.134 125.737C201.411 122.26 198.973 119.682 195.472 119.769C190.907 119.873 185.477 125.685 185.918 130.182C186.212 133.166 187.57 135.363 190.353 135.337ZM147.04 195.223C151.527 195.223 157.38 189.999 157.389 185.787C157.397 182.094 154.899 180.866 151.691 180.753C146.331 180.563 141.222 184.948 141.248 189.593C141.265 192.862 143.694 195.223 147.04 195.232V195.223ZM135.343 153.543C137.755 152.021 141.326 150.871 141.438 149.444C141.628 147.083 140.219 143.692 138.326 142.3C136.009 140.587 132.525 139.982 129.516 139.887C127.839 139.835 125.228 141.452 124.64 142.957C124.017 144.531 124.64 147.679 125.894 148.683C128.435 150.724 131.764 151.788 135.352 153.543H135.343ZM154.242 109.511C152.642 106.216 151.648 103.171 149.841 100.715C148.138 98.3883 145 97.1169 142.666 99.2878C141.109 100.741 140.011 103.855 140.375 105.93C140.841 108.56 142.657 111.224 144.559 113.23C145.821 114.562 148.804 115.868 150.04 115.245C151.838 114.337 152.763 111.691 154.242 109.511ZM214.474 175.149C212.728 176.083 209.849 176.723 209.468 178.063C208.967 179.811 209.823 182.916 211.223 184.023C213.774 186.038 217.042 187.629 220.223 188.183C221.987 188.494 225.687 186.54 225.851 185.268C226.137 183.045 225.004 179.785 223.301 178.375C221.174 176.619 217.863 176.29 214.483 175.149H214.474ZM172.293 111.993C172.535 115.842 172.847 119.31 176.772 120.002C180.653 120.686 182.253 117.589 183.524 114.588C184.025 113.412 184.397 112.123 184.518 110.86C184.872 106.994 182.564 102.99 179.659 102.722C175.682 102.35 174.264 105.403 173.054 108.369C172.527 109.667 172.458 111.154 172.293 111.993ZM170.832 202.212C170.772 197.801 168.584 194.28 165.827 194.168C162.299 194.021 158.331 199.28 158.426 203.985C158.504 207.747 161.149 210.619 164.469 210.558C168.169 210.489 170.893 206.908 170.832 202.22V202.212ZM217.344 167.927C219.099 167.754 220.31 167.979 221.053 167.494C222.834 166.327 225.324 165.064 225.765 163.369C226.137 161.959 224.425 159.226 222.886 158.248C219.281 155.965 215.097 156.173 211.405 158.188C207.324 160.419 207.592 164.363 211.846 166.361C213.748 167.252 215.944 167.538 217.336 167.918L217.344 167.927ZM206.062 150.395C211.353 150.438 216.229 147.143 216.203 143.545C216.177 140.63 213.125 138.191 209.468 138.174C204.601 138.157 199.976 141.556 199.915 145.206C199.863 148.337 202.258 150.361 206.062 150.395Z" fill="white"/>
</g>
<defs>
<clipPath id="clip0_26_106">
<rect width="1564" height="285" fill="white"/>
</clipPath>
</defs>
</svg>
